<?xml version="1.0" encoding="UTF-8"?>
<!--Generator: Apple Native CoreSVG 232.5-->
<!DOCTYPE svg PUBLIC "-//W3C//DTD SVG 1.1//EN" "http://www.w3.org/Graphics/SVG/1.1/DTD/svg11.dtd"> <svg version="1.1"
    xmlns="http://www.w3.org/2000/svg" xmlns:xlink="http://www.w3.org/1999/xlink" width="18.3398" height="17.998">
    <g>
        <rect height="17.998" opacity="0" width="18.3398" x="0" y="0" />
        <path
            d="M17.9785 3.04688L17.9785 14.9707C17.9785 16.9824 16.9629 17.998 14.9121 17.998L3.06641 17.998C1.02539 17.998 0 16.9922 0 14.9707L0 3.04688C0 1.02539 1.02539 0.0195312 3.06641 0.0195312L14.9121 0.0195312C16.9629 0.0195312 17.9785 1.03516 17.9785 3.04688ZM9.94141 5.09766L9.94141 10.7129C9.94141 11.7188 9.42383 12.3242 8.59375 12.3242C7.8418 12.3242 7.34375 11.9531 7.08984 11.2988C6.91406 10.918 6.68945 10.752 6.34766 10.752C5.89844 10.752 5.5957 11.0645 5.5957 11.5039C5.5957 11.6797 5.625 11.8262 5.68359 11.9824C6.03516 13.0273 7.11914 13.7109 8.51562 13.7109C10.4883 13.7109 11.5625 12.6562 11.5625 10.7324L11.5625 5.09766C11.5625 4.54102 11.2793 4.18945 10.7422 4.18945C10.2246 4.18945 9.94141 4.56055 9.94141 5.09766Z"
            fill="#fff" fill-opacity="0.85" />
    </g>
</svg>