<svg xmlns="http://www.w3.org/2000/svg" fill="none" viewBox="129.59 41.19 233.46 219.02"><path d="M197.44 117.565c1.867-2.597 3.398-5.316 3.398-7.194 0-1.456-.92-2.408-3.316-2.408-6.659 0-13.279 4.76-17.166 6.736.513-1.351.744-2.454.744-3.346 0-2.356-1.622-3.22-3.934-3.22-1.717 0-3.815.476-5.912 1.165-1.764-7.95-5.001-15.001-10.771-15.001-4.811 0-10.057 7.333-11.083 18.4-2.03-1.458-4.222-2.102-6.504-2.102-4.258 0-8.84 2.235-13.302 5.565 4.277-1.227 8.832-1.965 13.118-1.965 10.274 0 20.624 6.058 35.584 6.058 6.309 0 12.872-.976 19.144-2.688zm72.345-22.95c.45-25.953 8.872-53.428 24.804-53.428 10.376 0 14.009 18.989 14.264 32.695 3.532-4.324 6.904-6.597 9.904-6.597 3.687 0 6.812 3.433 8.97 10.703 3.17-5.668 8.129-12.344 15.776-12.344 9.004 0 13.372 9.882 13.372 19.213 0 .519-.01 1.034-.026 1.55a165.757 165.757 0 00-13.072-.509c-32.514 0-53.776 8.211-73.992 8.718zm-33.253 49.323c3.168-10.423.819-21.457-10.624-21.457-7.455 0-12.618 7.627-14.646 13.129-1.953-1.733-4.072-2.648-6.228-2.648-2.646 0-5.352 1.379-7.882 4.298-1.514-2.275-4.176-4.956-9.669-4.956-6.468 0-10.937 3.967-12.192 7.716a11.11 11.11 0 00-.189.621c3.151-.137 6.304-.204 9.457-.203 23.352 0 37.52 3.297 51.973 3.5z" fill="#FAFBFC"/><path fill-rule="evenodd" clip-rule="evenodd" d="M212.93 159.82l25.283 10.815-.226.529-25.283-10.816.226-.528z" fill="#B6BFC4"/><path d="M258.247 172.215l-21.969-11.175.579-2.095 21.966 11.176-.576 2.094z" fill="#B6BFC4"/><path d="M238.237 172.408l-.15-.639 20.989-9.107.151.641-20.99 9.105zm19.108-.777l-.154-.634 25.816-11.76.156.636-25.818 11.758zm-20.015-1.244l-.275-1.29 22.602-8.888.276 1.286-22.603 8.892z" fill="#B6BFC4"/><path fill-rule="evenodd" clip-rule="evenodd" d="M217.417 152.954h1.767v.994h-1.767v-.994z" fill="#CDCCCC"/><path d="M277.095 153.81v.14h1.769v-.994h-1.769" fill="#CDCCCC"/><path fill-rule="evenodd" clip-rule="evenodd" d="M217.417 151.962h1.767v.994h-1.767v-.994zm59.677 0h1.769v.994h-1.769v-.994z" fill="#CDCCCC"/><path d="M278.864 172.42v-2.13h5.768l-.017 2.13h-5.751zm-6.324-5.243l-9.975-4.917h14.53v4.917h-4.555zm-53.356 0v-4.917h14.532l-9.977 4.917h-4.555zm-1.766 5.243h-5.752l-.016-2.13h5.768v2.13zm72.307-3.157v3.157h-4.319l-.189-12.598h-.506l-.058 7.355h-5.789v-4.917h1.372v-2.438l-1.372.026v-6.039h-1.769v6.076l-28.954.588-28.957-.588v-6.076h-1.766v6.039l-1.372-.026v2.438h1.372v4.917h-5.792l-.056-7.355h-.506l-.189 12.598h-4.321v-3.157h-1.204v10.551h1.204v-5.838h4.298l-.094 5.838h.964l-.044-5.838h5.74v5.838h1.766v-9.524h4.555v-.154l13.659-7.134 1.701 15.979h2.8l-2.637-16.721h17.755l-2.635 16.721h2.8l1.701-15.979 13.657 7.134v.154h4.555v9.524h1.769v-5.838h5.737l-.044 5.838h.966l-.096-5.838h4.298v5.838h1.204v-10.551h-1.204z" fill="#B6BFC4"/><path d="M282.033 82.837c0 2.632-4.636 4.765-10.364 4.765m-34.11-9.225c0 2.632-4.634 4.764-10.363 4.764l10.363-4.764z" stroke="#D1D5DA" stroke-width=".806" stroke-miterlimit="10"/><path d="M227.106 70.611l-2.102.077 3.175 90.351 5.656-.291-6.729-90.137z" fill="#D1D5DA"/><path d="M237.38 78.377v1.798l-10.328.584-.352-2.382h10.68zm0 7.855v1.8h-10.328l-.219-2.012 10.547.212z" fill="#B6BFC4"/><path d="M237.026 95.57v1.8l-9.415-.085-.282-1.84 9.697.125z" fill="#D1D5DA"/><path d="M237.379 101.944v1.798h-9.198l-.215-1.798h9.413z" fill="#B6BFC4"/><path d="M238.531 112.751l.329 1.768-9.616 1.898-.215-2.836 9.502-.83z" fill="#D1D5DA"/><path d="M222.922 70.687l-2.004 90.354h7.261l-3.175-90.354h-2.082z" fill="#E1E4E8"/><path fill-rule="evenodd" clip-rule="evenodd" d="M224.713 117.077h3.264v2.585h-3.264v-2.585zm-3.708-10.988h2.959v10.864h-2.959v-10.864z" fill="#B6BFC4"/><path fill-rule="evenodd" clip-rule="evenodd" d="M221.402 109.671h2.958v2.583h-2.958v-2.583z" fill="#E4E4E4"/><path fill-rule="evenodd" clip-rule="evenodd" d="M220.408 103.065h7.579v.964h-7.579v-.964zm-.072-4.944h3.654v3.392h-3.654v-3.392zm3.63-3.393h3.654v3.393h-3.654v-3.393z" fill="#B6BFC4"/><path d="M246.428 156.079h13.223l1.116-5.798h-15.816l1.477 5.798z" fill="#959DA5"/><path fill-rule="evenodd" clip-rule="evenodd" d="M244.466 147.784h17.643v5.388h-17.643v-5.388z" fill="#B6BFC4"/><path d="M184.29 114.633h-10.518v-4.116a6.886 6.886 0 016.888-6.886h1.05a2.57 2.57 0 011.825.755 2.584 2.584 0 01.755 1.824v8.423z" fill="#E1E4E8"/><path fill-rule="evenodd" clip-rule="evenodd" d="M183.395 105.625h1.906v5.018h-1.906v-5.018zm-2.207 1.657h.331v8.073h-.331v-8.073z" fill="#B6BFC4"/><path d="M181.922 107.852h-1.092a.582.582 0 01-.58-.581v-.128c0-.322.258-.581.58-.581h1.092a.58.58 0 01.582.581v.128a.58.58 0 01-.582.581z" fill="#B6BFC4"/><path d="M289.489 81.656h-4.569v-4.618a1.59 1.59 0 01.469-1.132 1.605 1.605 0 011.132-.469h.842a1.599 1.599 0 011.598 1.6l.528 4.618z" fill="#D1D5DA"/><path fill-rule="evenodd" clip-rule="evenodd" d="M284.43 77.11h2.432v.849h-2.432v-.85zm2.45-.911h2.432v.291h-2.432V76.2z" fill="#B6BFC4"/><path d="M262.542 150.155l8.873 7.38h3.598l-12.463-8.6-.008 1.22" fill="#959DA5"/><path d="M263.905 116.488h-1.879s.691 10.955.526 32.445l3.164 2.184c3.338-6.933 6.374-14.045 7.541-21.329-2.331-7.742-5.987-12.666-9.352-13.3" fill="#B6BFC4"/><path d="M273.256 129.787c-1.166 7.287-4.202 14.397-7.539 21.332l9.296 6.416c1.431-10.899.411-20.545-1.757-27.748" fill="#D1D5DA"/><path d="M253.206 51.03c-3.61 3.07-6.613 6.35-9.091 9.79-4.217 17.47-6.997 35.964-.843 52.944-2.57 2.058-4.704 4.559-6.607 7.286 2.237 10.83 5.273 20.904 7.205 29.104h15.258c-9.037-44.49-5.922-99.124-5.922-99.124" fill="#E1E4E8"/><path d="M243.273 113.764c-6.155-16.98-3.374-35.476.843-52.944-12.973 18.009-11.553 40.386-7.451 60.231 1.904-2.728 4.035-5.229 6.608-7.287z" fill="#EDF0F2"/><path d="M253.206 51.03s-3.115 54.634 5.922 99.124h3.414c6.144-26.096 23.485-71.185-9.336-99.124" fill="#D1D5DA"/><path d="M296.715 69.457a.796.796 0 00-.672-.082.841.841 0 00-.474.41.948.948 0 00-.063.727c.07.212.21.394.395.504a.792.792 0 00.674.067.842.842 0 00.464-.41.954.954 0 00.058-.715.908.908 0 00-.382-.501zm1.227.593c.028.24.007.487-.058.718-.189.67-.728 1.158-1.379 1.244-.232.031-.468.01-.691-.06-.649-.208-1.125-.808-1.204-1.53a1.894 1.894 0 01.063-.748c.203-.688.77-1.17 1.44-1.23.233-.02.464.01.686.089.625.229 1.071.821 1.143 1.517" fill="#B6BFC4"/><path d="M294.607 95.734a1.097 1.097 0 00-.919-.11c-.273.091-.504.29-.646.553a1.277 1.277 0 00-.084.982c.093.292.285.535.539.684a1.094 1.094 0 00.922.091c.272-.098.497-.297.63-.555a1.27 1.27 0 00.083-.964 1.238 1.238 0 00-.525-.68zm1.68.8c.035.328.008.659-.081.975-.259.904-.992 1.564-1.885 1.68a2.1 2.1 0 01-.941-.08c-.887-.28-1.54-1.09-1.647-2.066-.04-.34-.01-.686.088-1.015.276-.929 1.053-1.582 1.965-1.663.318-.028.638.013.938.12.852.308 1.461 1.112 1.563 2.05z" fill="#D1D5DA"/><path d="M293.716 72.342a.904.904 0 00-.714 0 .788.788 0 00-.376 1.104.911.911 0 00.465.41.887.887 0 00.683 0 .784.784 0 00.409-1.078.899.899 0 00-.467-.436zm1.379.43c.049.224.049.456 0 .68-.137.621-.641 1.088-1.281 1.214a1.872 1.872 0 01-.684 0c-.653-.126-1.201-.593-1.397-1.213a1.59 1.59 0 01-.065-.682c.081-.665.58-1.204 1.276-1.35.245-.052.499-.052.744 0 .71.146 1.26.685 1.407 1.35z" fill="#B6BFC4"/><path d="M163.008 101.71a.908.908 0 00-.714 0 .79.79 0 00-.422.436.798.798 0 00.047.667.895.895 0 00.464.411.91.91 0 00.684 0 .793.793 0 00.424-.411.786.786 0 00-.018-.667.903.903 0 00-.465-.436zm1.377.429a1.6 1.6 0 010 .682c-.136.618-.64 1.087-1.279 1.213a1.867 1.867 0 01-.683 0c-.656-.126-1.202-.595-1.4-1.213a1.608 1.608 0 01-.064-.682c.082-.667.582-1.204 1.274-1.351.247-.051.501-.051.747 0 .709.147 1.258.684 1.405 1.351zm-8.27 27.594a1.503 1.503 0 00-.38-1.141 1.341 1.341 0 00-.931-.441 1.365 1.365 0 00-1.05.431 1.546 1.546 0 00-.416.964c-.028.404.106.8.362 1.094a1.338 1.338 0 001.958.07c.264-.252.427-.602.457-.977zm.04 2.431c-.336.2-.711.325-1.099.366-1.071.115-2.096-.436-2.637-1.395a2.968 2.968 0 01-.364-1.092c-.149-1.111.317-2.237 1.211-2.886.318-.23.68-.39 1.064-.469 1.118-.226 2.252.282 2.858 1.311.216.366.353.773.4 1.195.137 1.208-.437 2.38-1.433 2.97zm4.432-22.143a.78.78 0 00.086-.634.723.723 0 00-.666-.511.834.834 0 00-.857.714.765.765 0 00.023.312c.052.18.168.331.332.425a.773.773 0 00.62.06.848.848 0 00.462-.366zm-.562 1.178a1.52 1.52 0 01-.635-.076 1.442 1.442 0 01-.681-.492 1.442 1.442 0 01-.294-.787 1.537 1.537 0 01.082-.609 1.681 1.681 0 011.292-1.108c.213-.038.432-.031.642.02a1.445 1.445 0 011.106 1.288 1.61 1.61 0 01-.089.668 1.677 1.677 0 01-1.423 1.096zm85.107 3.473s-3.54 15.922-.516 33.665l-8.871 8.932-2.973-3.35 4.459-30.511 3.99-7.198s1.713-1.466 3.911-1.538" fill="#D1D5DA"/><path d="M235.744 157.269c0-22.69 4.2-42.598 9.387-42.598h-1.876c-6.499 1.228-14.077 19.988-11.109 42.598h3.598z" fill="#E1E4E8"/><path d="M287.37 86.456l2.982.68c-.514 5.53-2.838 10.965 2.025 9.537l.301 1.024c-6.148 1.804-5.896-5.103-5.308-11.242" fill="#D1D5DA"/><path d="M296.127 77.453c-2.311-.532-2.921-1.256-2.84-3.365l.476.019c-.072 1.864.39 2.403 2.471 2.881l-.107.465z" fill="#B6BFC4"/><path d="M156.74 129.726l.052-1.064c6.834.328 10.568.468 10.285-6.632l2.273.448c.334 8.365-7.985 7.472-12.61 7.248zm9.537-25.91v9.908h-.947v-9.92c.373-.205.947.012.947.012z" fill="#D1D5DA"/><path fill-rule="evenodd" clip-rule="evenodd" d="M282.75 83.641v-9.907h.947v9.907h-.947zm12.857-3.143l.222-8.82.945.023-.222 8.82-.945-.023z" fill="#B6BFC4"/><path fill-rule="evenodd" clip-rule="evenodd" d="M172.024 128.699h10.328v1.799h-10.328v-1.799zm119.952-20.907h5.344v1.799h-5.344v-1.799zm-109.662 29.122h2.824v1.799h-2.824v-1.799zm117.367-46.108h2.329v2.347h-2.329v-2.347z" fill="#D1D5DA"/><path d="M163.647 113.699c-.178-3.439-.353-6.872-.332-10.302l-.947-.005c-.009 1.38.014 2.756.058 4.133-.061.863-.219 1.573-.593 1.871-.207.166-.494.198-.877.1l-.177.689c.203.051.392.077.572.077.356 0 .667-.103.926-.308.084-.07.158-.15.228-.236.056 1.344.124 2.688.194 4.03l.948-.049z" fill="#D1D5DA"/><path fill-rule="evenodd" clip-rule="evenodd" d="M212.616 150.976h2.044v1.068h-2.044v-1.068z" fill="#B3B3B3"/><path d="M281.621 151.895v.149h2.044v-1.068h-2.044" fill="#B3B3B3"/><path fill-rule="evenodd" clip-rule="evenodd" d="M212.616 149.906h2.044v1.069h-2.044v-1.069zm69.006 0h2.044v1.069h-2.044v-1.069z" fill="#E6E6E6"/><path d="M283.665 171.909v-2.289h6.667l-.019 2.289h-6.648zm-7.313-5.639l-11.533-5.288h16.802v5.288h-5.269zm-61.693 0v-5.288h16.803l-11.534 5.288h-5.269zm-2.044 5.639h-6.647l-.019-2.289h6.666v2.289zm83.608-3.395v3.395h-4.995l-.22-13.552h-.583l-.065 7.913h-6.695v-5.288h1.587v-2.625l-1.587.031v-6.494h-2.044v6.533l-33.481.63-33.481-.63v-6.533h-2.044v6.494l-1.584-.031v2.625h1.584v5.288h-6.694l-.065-7.913h-.584l-.219 13.552h-4.996v-3.395h-1.393v11.3h1.393v-6.23h4.968l-.107 6.23h1.115l-.051-6.23h6.633v6.23h2.044V169.62h5.269v-.168l15.792-7.672 1.964 20.034h3.239l-3.047-20.832h20.528l-3.047 20.832h3.239l1.967-20.034 15.789 7.672v.168h5.269v10.194h2.044v-6.23h6.634l-.049 6.23h1.113l-.107-6.23h4.967v6.23h1.393v-11.3h-1.393z" fill="#EDF0F2"/><path fill-rule="evenodd" clip-rule="evenodd" d="M295.325 95.608l1.107-.35.418 1.327-1.106.35-.419-1.327z" fill="#D1D5DA"/><path d="M168.41 112.977h-10.386c1.976 4.132 6.72 12.056 15.02 12.077a12.525 12.525 0 005.67-1.365c-4.558-2.567-8.396-6.207-10.304-10.712z" fill="#D1D5DA"/><path d="M178.712 123.689c4.872-2.453 7.882-7.635 9.354-10.713h-19.658c1.911 4.506 5.749 8.146 10.304 10.713z" fill="#E1E4E8"/><path d="M152.131 114.754c.978-.261 1.876-.364 2.791-.469a60.07 60.07 0 012.711-.231c1.801-.117 3.598-.182 5.392-.227a308.43 308.43 0 0110.752-.06c3.582.04 7.161.119 10.741.254 1.789.066 3.581.147 5.373.252 1.797.11 3.577.22 5.414.458l-.259 1.852c-1.706-.224-3.496-.334-5.264-.443a249.797 249.797 0 00-5.334-.252 405.31 405.31 0 00-10.689-.252 306.918 306.918 0 00-10.687.061c-1.776.044-3.551.109-5.318.224-.879.06-1.761.123-2.627.221-.856.098-1.741.21-2.49.413l-.506-1.801zm2.264 3.659l16.144-.217 4.037-.053 2.018-.026 2.019.012 8.073.06-.007.535-8.069-.061-2.016-.012-2.016.026-4.034.054-16.138.217-.011-.535z" fill="#B6BFC4"/><path d="M301.655 78.874h-22.617c1.484 2.93 5.059 8.551 11.307 8.565a9.937 9.937 0 004.126-.9c3.752-1.711 6.062-5.454 7.184-7.665z" fill="#A3A3A3"/><path d="M293.502 85.978c-2.578-1.575-5.232-4.151-6.73-7.105h-7.734c1.486 2.93 5.058 8.552 11.307 8.566a9.84 9.84 0 004.125-.9c-.327-.18-.65-.367-.968-.56" fill="#EDF0F2"/><path d="M293.501 85.978c.322.196.644.383.969.56 3.752-1.71 6.064-5.453 7.184-7.665h-14.882c1.498 2.954 4.151 5.53 6.729 7.105z" fill="#D1D5DA"/><path d="M275.056 81.054c4.027-.082 8.068-.136 12.114-.136 5.782 0 11.566.108 17.316.4" stroke="#B6BFC4" stroke-width=".535" stroke-miterlimit="10"/><path d="M278.531 82.976l22.605 1.122" stroke="#B6BFC4" stroke-width="1.341" stroke-miterlimit="10"/><path d="M172.262 54.458a5.55 5.55 0 01-6.888-5.107 5.553 5.553 0 015.268-5.817 5.547 5.547 0 011.62 10.924z" fill="#FAFBFC"/><path d="M254.837 64.224c1.876 2.452 2.196 4.59 2.196 4.59h1.794c-.632-1.61-1.379-3.113-2.301-4.537l-1.689-.053zm2.477.08c.84 1.472 1.647 2.963 2.331 4.51h1.687a63.934 63.934 0 00-1.477-4.43l-2.541-.08zm6.756 4.51c-1.038-3.52-2.149-4.363-2.149-4.363l-1.577-.051c.609 1.49 1.374 2.942 2.034 4.414h1.692z" fill="#B6BFC4"/><path d="M264.768 73.226h-2.56l-.308-.92h2.625l.243.92z" fill="#959DA5"/><path fill-rule="evenodd" clip-rule="evenodd" d="M259.63 77.604h2.272v.772h-2.272v-.772z" fill="#959DA5"/><path fill-rule="evenodd" clip-rule="evenodd" d="M262.614 77.588h2.975v.772h-2.975v-.772zm5.154 2.319h2.976v.772h-2.976v-.772zm-27.437 12.441h3.201v1.244h-3.201v-1.244z" fill="#B6BFC4"/><path fill-rule="evenodd" clip-rule="evenodd" d="M238.73 93.592l-4.864.022-.006-1.244 4.865-.021.005 1.243z" fill="#D1D5DA"/><path fill-rule="evenodd" clip-rule="evenodd" d="M259.345 117.667h3.54v1.242h-3.54v-1.242z" fill="#B6BFC4"/><path fill-rule="evenodd" clip-rule="evenodd" d="M264.652 117.666l5.383-.02.005 1.241-5.383.021-.005-1.242z" fill="#E1E4E8"/><path d="M175.317 48.35a4.624 4.624 0 01-1.009 3.422 4.636 4.636 0 01-4.953 1.508 4.63 4.63 0 115.962-4.93zm63.188 123.554l-.149-.639 20.988-9.107.152.642-20.991 9.104zm-.908-2.021l-.273-1.29 22.601-8.888.278 1.286-22.606 8.892z" fill="#EDF0F2"/><path d="M274.334 230.261l.096 5.8 19.364 6.594 16.468-6.594 1.928-16.837-17.958 5.017-19.898 6.02z" fill="#B6BFC4"/><path d="M312.188 219.223l-19.539-5.544-4.657 1.596c5.511 3.087 11.554 4.839 16.888 5.99l7.308-2.042zm-29.595-2.096l-8.43 2.888.17 10.246 19.899-6.02 2.084-.581c-7.11-1.962-11.975-3.453-13.723-6.533" fill="#E1E4E8"/><path d="M287.992 215.274l-5.397 1.853c1.748 3.08 6.613 4.571 13.72 6.533l8.566-2.396c-5.334-1.15-11.378-2.903-16.889-5.99" fill="#B6BFC4"/><path d="M193.013 231.84l2.54 10.826 18.074 2.711 14.08-9.876 4.198-20.352-19.18 8.876-19.712 7.814v.001z" fill="#959DA5"/><path d="M216.525 213.754l-4.928-.345-9.422 3.154c.203.778.518 1.419 1.12 1.781 3.108 1.976 6.279 3.759 9.216 5.765l.215-.084 14.28-6.61a54.142 54.142 0 00-5.908-1.528c-1.647-.413-3.157-1.169-4.573-2.133" fill="#B6BFC4"/><path d="M216.524 213.754c1.417.964 2.926 1.72 4.574 2.133 1.996.398 3.969.908 5.908 1.528l5.488-2.541-15.97-1.12zm-14.349 2.81l-11.817 3.959 2.656 11.317 19.497-7.73c-2.937-2.007-6.109-3.79-9.219-5.766-.6-.362-.917-1.004-1.118-1.78" fill="#E1E4E8"/><path d="M190.358 220.524l3.682 15.685 18.711 3.815-.026-15.998-22.367-3.502z" fill="#B6BFC4"/><path d="M274.206 222.623l.128 7.637 18.842 5.243 1.057-11.263-20.027-1.617zm-50.828-13.31l-.208 5.456 1.04.039.75-.373-.166-5.08-1.416-.042zM205.066 209.999l-1.405 9.59s6.9 1.988 9.357.936c2.455-1.052 4.561-3.39 4.561-3.39s-1.285-6.2-2.573-7.721c-1.286-1.519-9.94.585-9.94.585" fill="#959DA5"/><path d="M202.506 212.092c1.022.846 2.345 1.294 3.679 1.507 1.342.215 2.723.203 4.086.067 2.707-.308 5.451-1.052 7.733-2.515l.298.441c-2.412 1.54-5.191 2.284-7.977 2.604-1.4.142-2.821.156-4.224-.07-1.395-.226-2.807-.688-3.938-1.624l.343-.41zm-.648 3.196c1.199.924 2.727 1.363 4.253 1.545 1.533.177 3.101.121 4.641-.093 3.064-.453 6.151-1.386 8.683-3.143l.315.431c-2.663 1.841-5.787 2.77-8.925 3.241-1.575.217-3.183.28-4.779.096-1.582-.191-3.201-.646-4.517-1.654l.329-.423z" fill="#6A737D"/><path d="M290.433 197.405l3.881 22.026s-4.488 1.991-6.084.938c-1.598-1.052-2.968-3.39-2.968-3.39s-2.13-18.639-1.294-20.158c.837-1.521 6.465.584 6.465.584" fill="#959DA5"/><path d="M282.973 211.58c1.796 1.892 4.307 3.059 6.916 3.159 2.608.129 5.217-.644 7.511-1.901l.257.466c-2.362 1.298-5.059 2.102-7.796 1.967-2.732-.1-5.395-1.337-7.273-3.32l.385-.371zm-.019-3.076c.924.793 1.96 1.449 3.097 1.86 1.134.412 2.352.574 3.576.63 1.249.046 2.455.09 3.654-.168 1.214-.213 2.411-.526 3.666-.719l.075.529c-1.202.182-2.413.5-3.647.717-1.242.266-2.541.224-3.771.175-1.253-.058-2.529-.226-3.735-.663-1.209-.434-2.301-1.131-3.262-1.955l.347-.406zm-.82-4.24c1.934.928 4.009 1.612 6.085 1.568 2.107-.014 3.974-.95 5.974-2.026l.592 1.197c-.959.481-1.959 1.059-3.063 1.465a10.392 10.392 0 01-3.47.698c-2.392.052-4.655-.718-6.706-1.701l.588-1.201zm-1.492-3.425c4.862 1.056 9.926.732 14.807-.204l.1.528c-4.923.942-10.063 1.276-15.022.198l.115-.522z" fill="#6A737D"/><path d="M226.717 191.886c-.793.18-1.467.712-1.768 1.389-.023.049-.042.1-.059.151l-.793.189.128 1.09.385.746.675-.072.063.124c.228.441.662.772 1.218.905.372.089.761.089 1.134 0 .784-.177 1.451-.693 1.757-1.36l.597.151.749-1.334-.385-.747s-.702-.009-1.188-.011l-.161-.311c-.228-.443-.66-.772-1.218-.91a2.524 2.524 0 00-1.134 0zm1.354 1.787c.021.012.039.022.058.036a.992.992 0 01-.219.552 1.326 1.326 0 01-.465.362c-.364.173-.781.173-1.096 0-.021-.009-.042-.023-.061-.035a.988.988 0 01.222-.551c.119-.154.28-.277.462-.364.366-.172.781-.172 1.099 0" fill="#959DA5"/><path d="M227.908 194.26c-.119.15-.28.276-.464.362-.364.172-.782.172-1.097 0a.869.869 0 01-.361-.362c-.152-.301-.098-.67.137-.968.122-.152.28-.278.465-.364.364-.173.781-.173 1.096 0a.848.848 0 01.362.364c.152.298.1.667-.138.968zm2.511-1.141s-.744-.011-1.23-.014c-.163-.595-.658-1.052-1.337-1.22a2.505 2.505 0 00-1.136 0c-.793.182-1.468.711-1.769 1.388a1.93 1.93 0 00-.058.154l-.791.189.126 1.088.681-.07c.208.504.67.882 1.274 1.031.374.086.763.086 1.137 0 .784-.18 1.451-.698 1.757-1.363l.595.15.751-1.333z" fill="#B6BFC4"/><path d="M222.787 206.741c-.509.364-.824.954-.828 1.544l.002.131-.502.371.425.77.499.441.458-.254.081.072c.299.261.705.378 1.141.315.28-.04.56-.154.805-.331.5-.362.815-.943.829-1.524l.466-.063.124-1.209-.499-.438-.847.338-.21-.182a1.406 1.406 0 00-1.139-.315c-.282.042-.56.156-.805.334zm1.505.924l.054.007a.842.842 0 01.011.476.949.949 0 01-.217.403c-.205.234-.501.357-.777.322-.018-.002-.037-.004-.053-.009a.808.808 0 01-.012-.471.979.979 0 01.217-.406.913.913 0 01.777-.322z" fill="#959DA5"/><path d="M224.357 208.147a.983.983 0 01-.217.406c-.205.23-.502.354-.777.322a.662.662 0 01-.366-.166c-.201-.178-.275-.464-.201-.756a1.04 1.04 0 01.217-.406c.208-.234.502-.355.777-.322.14.016.268.074.369.166.198.177.275.464.198.756zm1.431-1.582s-.53.212-.876.354c-.298-.394-.788-.588-1.32-.511a1.82 1.82 0 00-.805.331c-.509.367-.824.957-.829 1.548 0 .042.003.086.005.128l-.504.371.425.77.46-.252c.303.31.744.457 1.22.387.28-.04.558-.154.802-.331.502-.362.817-.941.829-1.524l.469-.063.124-1.208z" fill="#B6BFC4"/><path d="M228.068 195.375l-.362.056.903 20.613.667-.416-1.208-20.253z" fill="#959DA5"/><path d="M226.45 195.628l.243 20.332 1.915.084-.9-20.612-1.258.196zm-30.183 6.876s1.65-4.592 7.103-5.093c5.453-.499 11.263-1.218 14.634-.861 3.372.362 4.163 5.525 2.87 9.401-1.29 3.873-1.936 5.665-12.984 6.167-11.049.504-13.991-.07-13.846-3.514.074-1.797 2.223-6.1 2.223-6.1z" fill="#B6BFC4"/><path d="M198.219 202.413s1.059-3.091 5.049-3.628c3.99-.532 8.237-1.222 10.729-1.113 2.49.112 3.243 3.489 2.424 6.093s-1.234 3.81-9.338 4.554c-8.104.747-10.285.476-10.294-1.799-.005-1.19 1.43-4.107 1.43-4.107" fill="#58A6FF"/><path d="M207.01 207.522c5.308-.488 6.988-1.166 7.74-2.016.41-.462.609-1.034.908-1.983a6.33 6.33 0 00.244-1.204c.19-1.823-.406-3.288-1.322-3.703a1.654 1.654 0 00-.619-.145c-2.438-.107-6.834.607-10.586 1.111-3.531.474-4.399 3.092-4.399 3.092l-.014.042c-.366.746-1.376 2.991-1.372 3.798.005 1.181.574 1.82 9.42 1.008z" fill="#7EE787"/><path d="M198.415 206.748c.18.233 1.426.63 8.521-.024 5.376-.494 6.706-1.176 7.215-1.75a.37.37 0 00.037-.042c.257-.31.409-.712.705-1.647.075-.245.198-.924.212-1.05.178-1.717-.429-2.695-.856-2.891a.906.906 0 00-.324-.07c-2.376-.105-6.874.623-10.444 1.104-3.078.41-3.743 2.545-3.743 2.545-.042.124.028-.035-.441.973-.464 1.05-.908 2.233-.905 2.616 0 .189.023.233.023.236" fill="#BFF3BA"/><path d="M202.337 206.727l-1.966.172.436-2.888 3.934-.348-.434 2.891-1.97.173z" fill="#0366D6"/><path d="M208.243 206.207l-1.969.173.436-2.891 1.97-.173-.437 2.891z" fill="#34D058"/><path d="M206.709 203.489l.546-3.63 1.969-.173-.546 3.63-1.969.173z" fill="#E1E4E8"/><path d="M212.178 205.861l-1.967.173.242-1.606 1.968-.172-.243 1.605z" fill="#FFDF5D"/><path d="M212.419 204.255l-1.967.173.74-4.914 1.967-.173-.74 4.914z" fill="#FB8532"/><path d="M302.523 186.866s-1.596-4.256-6.862-3.654c-5.269.6-10.883 1.062-14.142 2.103-3.258 1.04-4.021 6.365-2.772 9.977 1.248 3.614 1.871 5.275 12.548 3.542 10.675-1.734 13.515-2.905 13.377-6.319-.072-1.785-2.149-5.649-2.149-5.649z" fill="#B6BFC4"/><path d="M282.29 189.662s-1.148-3.383 2.784-4.046c3.934-.665 8.029-1.5 10.813-1.432 2.786.072 6.111 3.73 7.156 6.582 1.045 2.846 1.491 4.17-6.748 5.145-8.239.973-10.805.725-12.507-1.75-.888-1.295-1.498-4.499-1.498-4.499z" fill="#58A6FF"/><path d="M285.449 194.757c1.488 1.059 4.086 1.143 10.752.357 5.091-.602 6.304-1.318 6.54-1.871.161-.373.021-.919-.45-2.203-.334-.903-.934-1.934-1.701-2.893-1.461-1.823-3.293-3.125-4.723-3.16-2.676-.067-6.666.747-10.659 1.419-1.169.198-1.701.642-1.96 1.034-.329.499-.347 1.104-.284 1.558.037.271.086.409.086.409.019.058.014.035.026.107.198 1.041.763 3.304 1.372 4.191.305.445.63.789 1.001 1.052" fill="#7EE787"/><path d="M285.912 194.103c1.185.84 3.413 1.017 10.194.215 4.772-.562 5.754-1.214 5.896-1.393.014-.11-.035-.437-.464-1.608-.296-.807-.847-1.761-1.575-2.669-1.428-1.785-3.059-2.835-4.116-2.859-2.618-.067-6.729.773-10.505 1.407-1.001.168-1.316.518-1.425.686-.175.264-.208.637-.159 1.008.03.215.047.248.047.248.079.222.067.364.294 1.278.277 1.118.665 2.334 1.01 2.836.266.384.525.653.803.851zm16.1-1.19v-.002c.002-.005.004-.012 0 .002z" fill="#BFF3BA"/><path d="M280.65 212.203c-.924-.614-1.536 1.535-2.149.924a9.83 9.83 0 01-.264-.378c-.051 3.147-.119 6.37-.119 6.37.03.471.796.804 1.71.746.918-.056 1.636-.483 1.606-.952-.005-.084-.131-3.269-.248-6.174a3.574 3.574 0 00-.536-.536" fill="#B6BFC4"/><path d="M287.873 203.879c-.492-1.153-9.709.413-9.595 3.112.028.672 0 3.19-.042 5.759.084.126.171.25.264.376.613.613 1.227-1.535 2.149-.924.198.161.376.343.539.539l-.185-4.706c1.727-2.346 8.274-.882 6.87-4.156" fill="#E1E4E8"/><path d="M343.518 153.19c-3.481-.852-7.21-1.26-10.953-1.26-.144 0-.287 0-.429.002m-14.148 4.002c-4.137 2.94-6.321 7.165-6.865 11.524-.695 5.567.331 13.48-1.332 16.473-2.66 3.493-1.33 7.152 8.486 12.311 9.817 5.156 27.211 4.244 32.611-.497 6.232-5.477 11.13-13.949 11.13-22.335 0-4.942-1.57-8.953-4.207-12.112M166.66 149.482c3.448.14 7 .731 10.462 1.69.45.124.887.254 1.314.387m13.126 9.433c2.039 3.442 2.62 7.254 2.093 10.857-.81 5.549-3.908 12.901-3.101 16.231 1.635 4.076-.623 7.252-11.459 9.608-10.834 2.357-25.126-.844-33.446-9.431-5.773-5.962-4.868-16.142-2.634-24.225 1.264-4.582 3.702-7.947 6.897-10.283m153.413 28.776c3.537-.373 7.924-.637 10.742 2.114m-11.088 2.086c3.691-.084 7.322-.831 10.954.537m39.77.486c2.772 0 6.172-.59 8.804.798m-11.297 3.431c3.293 0 7.619-.581 10.398 1.846m-172.315-7.026c3.225.341 7.252.05 10.136 2.052m-11.117.323c3.145.973 7.448 1.697 9.387 4.835m-59.081-16.089c.89-.059 1.819-.115 2.766-.154l-2.766.154zm-.51 3.851c1.314-.019 2.623-.073 3.927-.129l-3.927.129z" stroke="#0366D6" stroke-width="1.099" stroke-miterlimit="10"/><path d="M167.226 198.118c-5.885 4.814-9.007 13.314-9.007 18.853 0 10.682 1.64 18.567 1.932 27.086" stroke="#0366D6" stroke-width="1.099" stroke-miterlimit="10"/><path d="M165.916 201.611c-2.149 5.764-3.806 7.74-3.806 14.133 0 8.743 3.038 21.6 5.304 29.839" stroke="#0366D6" stroke-width="1.099" stroke-miterlimit="10"/><path d="M180.259 249.299c1.447.548 2.915 1.04 4.427 1.351 1.509.313 3.044.499 4.58.495 1.533-.017 3.07-.164 4.552-.542 1.463-.387 2.928-.945 4.104-1.815v-.003c.299-.207.577-.462.752-.697.212-.334.182-.173.084-.343-.364-.315-1.204-.49-1.886-.492l.003-1.09c.443.005.877.051 1.313.159.432.112.876.242 1.319.63.212.186.441.557.406.942-.03.175-.077.346-.14.511l-.215.322a4.368 4.368 0 01-.982.931v.003c-1.37 1.008-2.919 1.577-4.49 1.999-1.579.402-3.203.558-4.818.577-1.619.002-3.229-.192-4.809-.521-1.579-.327-3.108-.833-4.608-1.407l.408-1.01z" fill="#0366D6"/><path d="M162.85 249.075c-1.064.175-2.942.49-5.376.577-2.662.095-5.054-.714-7.539-2.413 0 0-1.05-1.332 2.002-1.276m181.881-42.49c-3.077 8.013-12.549 33.628-12.549 47.728 0 2 .178 3.615.551 4.975 3.227 2.448 8.087 3.299 12.803 3.299 3.804 0 7.509-.553 10.18-1.269.668-.18 1.893-1.19 1.893-2.004 0-.798-1.216-1.05-1.988-1.05-2.835 0-6.494 3.882-9.149 4.113m-14.392-8.759c-2.772 1.251-8.771 2.023-11.473 2.023-3.56 0-7.042-1.113-10.383-3.413.207-1.487 3.091-1.048 3.091-1.048" stroke="#0366D6" stroke-width="1.099" stroke-miterlimit="10"/><path d="M170.146 209.888c1.106 7.074 3.113 14.03 5.082 20.958 1.993 6.936 4.158 13.822 5.931 20.852l.066.262-.173.212-2.009 2.469-.016.016-.014.017c-1.326 1.367-2.751 2.678-4.417 3.702-1.652 1.034-3.587 1.704-5.558 1.814-3.925.156-7.681-.969-11.167-2.478h-.003c-.805-.283-1.5-1.26-1.381-2.18.058-.9.56-1.661 1.236-2.168a3.062 3.062 0 012.416-.522c.816.163 1.495.576 2.092 1.017 1.188.901 2.108 1.974 3.09 2.947.968.968 1.99 1.897 3.152 2.35l-.376 1.022c-1.465-.579-2.545-1.61-3.546-2.604-1.004-.992-1.925-2.051-2.973-2.842-1.015-.808-2.301-1.197-3.213-.486-.938.656-1.132 2.114-.058 2.467h.002c3.376 1.47 7.035 2.536 10.661 2.387 1.792-.1 3.519-.696 5.057-1.65 1.542-.952 2.914-2.202 4.2-3.53l-.031.032 2.011-2.468-.107.474c-1.757-6.972-3.925-13.865-5.919-20.809-1.974-6.947-3.988-13.907-5.113-21.107l1.078-.154z" fill="#0366D6"/><path d="M327.367 210.589c-4.896 10.054-8.545 20.251-11.858 30.919m21.292-39.238c1.194 7.84.384 16.119-.666 24.117-.802 6.111-2.366 12.551-2.366 18.846 0 .556.014 1.111.04 1.664" stroke="#0366D6" stroke-width="1.099" stroke-miterlimit="10"/><path d="M343.796 255.428c-.294-6.972-6.972-8.775-13.004-8.775-1.045 0-2.098.081-3.134.238m6.928-47.007c-8.148 0-12.367 8.171-15.669 8.171-7.448 0-8.008-12.814-23.055-12.814-6.562 0-11.758 2.975-14.663 8.915 1.316-.438 5.287-.879 6.23-.879 18.109 0 22.367 14.513 29.535 14.513 4.732 0 14.95-11.965 17.64-15.239m3.901-2.838c1.393 3.535 3.561 5.119 3.159 17.974-.334 10.649-1.064 23.123-.296 28.336m1.008 4.93c2.749-1.001 5.066-3.063 6.387-5.997m-7.551-5.469c3.304.411 5.348 2.459 4.811 5.633m-.459-2.072c2.859-.805 4.919-.674 2.476 3.316m-32.09-4.553c-10.058-1.449-13.33 1.092-14.184 7.25M158.26 219.918c-5.153 2.968-14.955 6.711-13.62-1.818 1.299-8.323 14.039-16.018 21.877-20.015" stroke="#0366D6" stroke-width="1.099" stroke-miterlimit="10"/><path d="M158.941 212.353c-2.754 1.535-7.259 2.585-3.332-2.385a34.047 34.047 0 016.771-6.498" stroke="#0366D6" stroke-width="1.099" stroke-miterlimit="10"/><path d="M157.013 214.169a.912.912 0 01.718.147c.21.161.302.345.362.49.114.303.131.548.142.788.005.476-.051.962-.219 1.414-.31.915-.961 1.641-1.685 2.18-1.498 1.012-3.28 1.57-5.191 1.045-.479-.151-1.029-.593-1.183-1.185-.154-.572-.063-1.08.119-1.58.45-.97 1.29-1.505 2.067-1.888 1.594-.756 3.246-1.08 4.87-1.411zm.21 1.069c-1.596.322-3.211.655-4.599 1.32-.691.327-1.298.784-1.545 1.34-.1.266-.145.611-.077.837.063.217.217.364.513.474 1.281.378 3.001-.054 4.172-.901.588-.441 1.083-1.003 1.298-1.661.126-.322.161-.667.161-1.013a1.503 1.503 0 00-.066-.427c-.098-.103.108.075.143.031zm-3.374-8.081c.359-.226.9-.42 1.428-.336.13.026.399.054.62.367.194.336.115.525.075.711-.1.29-.189.439-.287.624-.39.695-.816 1.316-1.26 1.941-.912 1.234-1.801 2.443-3.103 3.474-.348.18-.693.672-1.629.343-.499-.357-.418-.84-.41-1.003a3.26 3.26 0 01.112-.667c.24-.829.653-1.515 1.098-2.164.92-1.278 1.974-2.408 3.356-3.29zm.558.936c-1.153.733-2.201 1.825-3.02 2.98-.404.583-.763 1.208-.94 1.824-.035.152-.072.304-.075.439-.039.189.061.159-.105.017-.21-.047.187-.061.416-.299 1.056-.831 1.999-2.051 2.856-3.223.426-.597.844-1.215 1.187-1.831.084-.143.171-.329.194-.395.014.012-.009.003.065.176.114.149.182.118.133.118-.224-.028-.436.033-.711.194zm18.826 38.462c-1.288-.455-2.641-.742-3.973-.683-1.335.032-2.637.424-3.731 1.159-2.214 1.489-3.384 4.184-3.794 6.87l-1.078-.166c.441-2.858 1.687-5.864 4.265-7.609 1.269-.856 2.793-1.309 4.301-1.344 1.512-.063 2.993.259 4.377.749l-.367 1.024zm-23.801-93.066c2.191-3.976 4.972-7.728 8.675-10.505a19.86 19.86 0 012.978-1.827c.734-.336 1.675-.091 2.155.532.371.446.72.91 1.046 1.39 1.297 1.921 2.24 4.049 2.895 6.249l-1.045.311c-.628-2.108-1.531-4.138-2.753-5.946a17.1 17.1 0 00-.98-1.306.742.742 0 00-.885-.229 19.074 19.074 0 00-2.762 1.703c-3.519 2.634-6.233 6.274-8.365 10.15l-.959-.522z" fill="#0366D6"/><path d="M176.972 152.714s6.311-5 13.659-4.972c.341 0 .646.2.777.513.623 1.491 2.156 6.209.098 12.917" stroke="#0366D6" stroke-width="1.099" stroke-miterlimit="10"/><path d="M343.518 153.19s3.488-3.619 9.872-3.596c.297 0 .616.185.817.474.914 1.323 3.378 5.406 3.605 11.23m-39.824-5.364c.128-3.144.894-8.384 3.026-8.893 3.087-.733 8.13 2.047 13.314 6.809" stroke="#0366D6" stroke-width="1.099" stroke-miterlimit="10" stroke-linecap="round"/><path d="M205.471 197.781c-.298-.943-.84-1.685-1.7-2.03-.84-.352-1.912-.418-2.884-.344-1.977.185-3.769 1.328-5.132 2.848-1.383 1.516-2.431 3.354-3.268 5.266-.826 1.918-1.461 3.938-1.82 5.987l-1.076-.182c.38-2.161 1.034-4.239 1.897-6.241.873-1.991 1.965-3.92 3.465-5.566 1.465-1.638 3.509-2.984 5.831-3.194 1.143-.082 2.273-.035 3.418.422 1.169.45 1.991 1.608 2.305 2.693l-1.036.341z" fill="#0366D6"/><path d="M198.11 210.582c-4.643-1.227-9.118 1.02-16.9-3.252-7.886-4.928-6.197-5.495-11.671-8.993" stroke="#0366D6" stroke-width="1.099" stroke-miterlimit="10"/><path d="M174.765 209.477c2.408 5.754 4.132 11.725 6.097 17.575 1.962 5.843 4.188 11.629 7.506 16.786l-.917.59c-3.399-5.283-5.651-11.158-7.623-17.029-1.974-5.88-3.691-11.827-6.069-17.5l1.006-.422zM159.983 241.362c-1.962.05-4.041-.018-5.674.714-.81.36-1.349 1.022-1.59 1.881-.252.854-.259 1.82-.2 2.777l-1.088.082c-.06-1.032-.07-2.1.245-3.174.28-1.08 1.116-2.104 2.159-2.548 1.019-.478 2.079-.623 3.098-.714 1.027-.084 2.037-.1 3.043-.11l.007 1.092z" fill="#0366D6"/><path d="M276.76 233.15l1.489-5.486 11.055 2.054 1.263 6.295-13.807-2.863z" fill="#000"/><path d="M274.866 228.294c1.914-.046 4.174 3.118 4.174 3.118s1.333 1.4 2.35.63c1.018-.77 2.716-2.828 3.752-1.638 1.038 1.192.546 3.6 1.986 2.928 1.442-.672 2.779-1.72 3.806-1.449" stroke="#376EE3" stroke-width=".721" stroke-miterlimit="10"/><path d="M221.91 233.681c.56.037 1.146-.871 1.316-2.063.178-1.218-.142-2.272-.716-2.356a.164.164 0 00-.037-.005l-2.293-.145c-.56-.037-1.144.87-1.319 2.063-.175 1.218.145 2.273.717 2.357.014.002.028.004.042.004l2.29.145z" fill="#A7322C"/><path d="M223.228 231.619c-.177 1.218-.784 2.14-1.358 2.058-.571-.082-.891-1.136-.716-2.357.177-1.218.786-2.139 1.358-2.058.571.082.893 1.139.716 2.357z" fill="#DC4F28"/><path d="M218.887 230.79c.42.02.898-.708 1.101-1.671.212-1.006.058-1.951-.367-2.095a.12.12 0 00-.032-.01l-1.914-.462c-.524-.128-1.129.705-1.339 1.878-.21 1.181.075 2.184.609 2.257a.179.179 0 00.04.002l1.902.101z" fill="#E28D4E"/><path d="M219.988 229.119c-.208.987-.707 1.727-1.134 1.666-.446-.063-.654-.976-.441-2.049.215-1.094.765-1.867 1.209-1.712.422.144.578 1.087.366 2.095" fill="#F5C88A"/><path d="M299.294 218.804c1.531.156 2.833-.341 2.905-1.116a.691.691 0 00-.007-.198.913.913 0 00-.112-.294l-.126-.219-.373-.647-.149-.258c-.28-.481-1.1-.887-2.098-.99a2.972 2.972 0 00-.282-.021c-1.1-.044-2 .32-2.128.875l-.25 1.092a.592.592 0 00-.014.094.612.612 0 00.009.2c.126.698 1.23 1.337 2.625 1.482z" fill="#376EE3"/><path d="M299.11 217.414c-1.277-.133-2.259-.758-2.195-1.405.06-.641 1.145-1.059 2.419-.927 1.277.132 2.257.759 2.195 1.403-.06.644-1.145 1.059-2.419.929" fill="#00CEFF"/><path d="M297.337 186.579l-2.341.327-2.277.317 1.918 3.626 4.881-.571-2.181-3.699z" fill="#FFFBDD"/><path d="M298.225 192.682l2.553-.266-1.26-2.138-4.882.572 1.108 2.09 2.481-.258z" fill="#0366D6"/><path d="M290.496 187.534l-2.163.303.528 1.111 2.2-.292-.565-1.122z" fill="#6A737D"/><path d="M290.986 193.438l2.348-.245-1.036-2.07-2.282.266.97 2.049z" fill="#34D058"/><path d="M292.297 191.122l-1.235-2.466-2.202.292 1.155 2.44 2.282-.266z" fill="#79B8FF"/><path d="M286.482 193.907l2.221-.233-.509-1.136-2.186.244.474 1.125z" fill="#FFDF5D"/><path d="M284.17 188.418l.46 1.092 2.088-.275-.492-1.104-2.056.287z" fill="#FFEBDA"/><path d="M286.007 192.782l2.187-.243-1.475-3.306-2.089.277 1.377 3.272z" fill="#FB8532"/><path d="M204.981 196.241c3.918-2.714 3.045 2.596 1.414 6.05 0 0-5.112 17.269-11.578 17.726-12.558.887-17.903-6.295-25.445-16.186m16.748 37.848c4.092.173 9.972 1.645 10.364 4.487.448 3.25.336 1.792.336 1.792" stroke="#0366D6" stroke-width="1.099" stroke-miterlimit="10"/></svg>